<svg width="56.434265" height="64.000000" viewBox="0 0 56.4343 64" fill="none" xmlns="http://www.w3.org/2000/svg" xmlns:xlink="http://www.w3.org/1999/xlink">
	<desc>
			Created with Pixso.
	</desc>
	<defs/>
	<path id="Shape" d="M0 0L5.1358 57.6021L28.183 64L51.293 57.5928L56.4343 0L0 0ZM46.9153 53.9688L28.2645 59.0996L28.2645 51.7681L28.2084 51.7812L13.7123 47.7676L12.7225 36.6821L19.8148 36.6821L20.3296 42.3091L28.21 44.4253L28.2645 44.417L28.2645 33.0142L12.3745 33.0142L11.7558 25.96L28.2645 18.894L28.2645 18.4062L11.1276 18.4062L10.5016 11.3516L28.2645 11.3516L28.2645 4.79688L51.2852 4.79688L46.9153 53.9688Z" clip-rule="evenodd" fill="#7B4AE2" fill-opacity="0.500000" fill-rule="evenodd"/>
	<path id="Shape" d="M29.4033 18.4058L28.2645 18.894L28.2645 25.9595L28.2645 33.0137L36.8922 33.0137L36.108 42.2368L28.2645 44.4229L28.2645 51.7729L42.7125 47.7593L44.6151 25.9595L28.2646 25.9595L45.2565 18.4058L45.8633 11.3516L28.2645 11.3516L28.2645 18.4058L29.4033 18.4058Z" clip-rule="evenodd" fill="#7B4AE2" fill-opacity="0.500000" fill-rule="evenodd"/>
</svg>
