<svg width="64.000000" height="64.000000" viewBox="0 0 64 64" fill="none" xmlns="http://www.w3.org/2000/svg" xmlns:xlink="http://www.w3.org/1999/xlink">
	<desc>
			Created with Pixso.
	</desc>
	<defs>
		<clipPath id="clip21_3162">
			<rect id="Figma" width="64.000000" height="64.000000" fill="white" fill-opacity="0"/>
		</clipPath>
	</defs>
	<g clip-path="url(#clip21_3162)">
		<path id="Union" d="M21.4167 0C15.5287 0 10.75 4.77881 10.75 10.6665C10.75 16.5547 15.5287 21.3335 21.4167 21.3335C15.5287 21.3335 10.75 26.1118 10.75 32C10.75 37.8882 15.5287 42.6665 21.4167 42.6665C15.5287 42.6665 10.75 47.4453 10.75 53.3335C10.75 59.2212 15.5287 64 21.4167 64C27.3047 64 32.0833 59.2212 32.0833 53.3335L32.0833 32C32.0833 37.8882 36.862 42.6665 42.75 42.6665C48.638 42.6665 53.4167 37.8882 53.4167 32C53.4167 26.1118 48.638 21.3335 42.75 21.3335C48.638 21.3335 53.4167 16.5547 53.4167 10.6665C53.4167 4.77881 48.638 0 42.75 0L21.4167 0ZM42.75 21.3335L32.0833 21.3335L32.0833 32C32.0833 26.1118 36.862 21.3335 42.75 21.3335Z" fill="#7B4AE2" fill-opacity="0.500000" fill-rule="evenodd"/>
	</g>
</svg>
