<svg width="64.000000" height="64.000000" viewBox="0 0 64 64" fill="none" xmlns="http://www.w3.org/2000/svg" xmlns:xlink="http://www.w3.org/1999/xlink">
	<desc>
			Created with Pixso.
	</desc>
	<defs/>
	<rect id="Github" width="64.000000" height="64.000000" fill="#FFFFFF" fill-opacity="0"/>
	<path id="Shape" d="M32.0002 1.5C14.7435 1.5 0.75 15.4907 0.75 32.7505C0.75 46.5576 9.70416 58.2715 22.1208 62.4033C23.6826 62.6929 24.256 61.7256 24.256 60.9004C24.256 60.1553 24.2271 57.6934 24.2136 55.082C15.5197 56.9727 13.6852 51.395 13.6852 51.395C12.2637 47.7827 10.2155 46.8223 10.2155 46.8223C7.38013 44.8828 10.4291 44.9229 10.4291 44.9229C13.5672 45.1431 15.2195 48.1431 15.2195 48.1431C18.0068 52.9204 22.5302 51.5396 24.3134 50.7407C24.5939 48.7212 25.4038 47.3423 26.2975 46.562C19.3564 45.772 12.0598 43.0923 12.0598 31.1182C12.0598 27.7061 13.2805 24.9185 15.2796 22.73C14.9551 21.9429 13.8855 18.7646 15.5823 14.46C15.5823 14.46 18.2065 13.6201 24.1784 17.6631C26.6711 16.9707 29.3445 16.6235 32.0002 16.6118C34.656 16.6235 37.3314 16.9707 39.8289 17.6631C45.7935 13.6201 48.4141 14.46 48.4141 14.46C50.1151 18.7646 49.0449 21.9429 48.7204 22.73C50.7241 24.9185 51.9366 27.7061 51.9366 31.1182C51.9366 43.1206 44.626 45.7637 37.6673 46.5371C38.7882 47.5068 39.7869 49.4087 39.7869 52.3242C39.7869 56.5059 39.7507 59.8711 39.7507 60.9004C39.7507 61.7319 40.3132 62.7061 41.8973 62.3994C54.3073 58.2627 63.25 46.5527 63.25 32.7505C63.25 15.4907 49.2586 1.5 32.0002 1.5ZM12.4542 46.0166C12.3854 46.1719 12.1412 46.2183 11.9186 46.1118C11.692 46.0098 11.5647 45.7983 11.6382 45.6426C11.7054 45.4824 11.9502 45.438 12.1763 45.5454C12.4035 45.647 12.5329 45.8608 12.4542 46.0166ZM13.9914 47.3882C13.8423 47.5264 13.551 47.4624 13.3533 47.2437C13.1489 47.0259 13.1107 46.7349 13.2617 46.5942C13.4155 46.4561 13.698 46.521 13.9029 46.7388C14.1073 46.9595 14.1472 47.2485 13.9914 47.3882ZM15.046 49.1431C14.8545 49.2764 14.5414 49.1514 14.3478 48.8735C14.1564 48.5957 14.1564 48.2622 14.352 48.1289C14.5461 47.9951 14.8545 48.1152 15.0506 48.3911C15.2416 48.6738 15.2416 49.0068 15.046 49.1431ZM16.8294 51.1758C16.6581 51.3643 16.2933 51.314 16.0263 51.0562C15.7531 50.8042 15.677 50.4463 15.8488 50.2573C16.0222 50.0684 16.389 50.1216 16.6581 50.377C16.9293 50.6284 17.0121 50.9888 16.8294 51.1758ZM19.1344 51.8618C19.0588 52.1064 18.7075 52.2178 18.3535 52.1138C18.0001 52.0068 17.7687 51.7197 17.8401 51.4727C17.9136 51.2261 18.2666 51.1104 18.6231 51.2217C18.9761 51.3281 19.2079 51.6128 19.1344 51.8618ZM21.7576 52.1528C21.7664 52.4106 21.4662 52.624 21.0947 52.6289C20.721 52.6372 20.4188 52.4287 20.4147 52.1748C20.4147 51.9146 20.7081 51.7031 21.0817 51.6968C21.4532 51.6895 21.7576 51.8965 21.7576 52.1528ZM24.3345 52.0542C24.379 52.3057 24.1208 52.5635 23.7518 52.6323C23.389 52.6987 23.0532 52.5435 23.0071 52.2939C22.9621 52.0361 23.225 51.7783 23.5873 51.7114C23.9567 51.647 24.2874 51.7983 24.3345 52.0542Z" fill="#7B4AE2" fill-opacity="0.500000" fill-rule="evenodd"/>
</svg>
