<svg width="64.000000" height="64.000000" viewBox="0 0 64 64" fill="none" xmlns="http://www.w3.org/2000/svg" xmlns:xlink="http://www.w3.org/1999/xlink">
	<desc>
			Created with Pixso.
	</desc>
	<defs>
		<clipPath id="clip21_3147">
			<rect id="HTML5" width="64.000000" height="64.000000" fill="white" fill-opacity="0"/>
		</clipPath>
	</defs>
	<g clip-path="url(#clip21_3147)">
		<path id="Shape" d="M3.92828 2L8.88562 57.6025L31.9315 64L55.0408 57.5933L60.0034 2L60.1819 0L3.75 0L3.92828 2ZM5.93622 2L10.7548 56.0454L31.9318 61.9243L53.1719 56.0361L57.9955 2L5.93622 2Z" fill="#7B4AE2" fill-opacity="0.500000" fill-rule="evenodd"/>
		<path id="Shape" d="M46.4246 47.7632L46.5308 46.5698L48.1909 27.9707L48.3633 26.0737L22.6176 26.0737L21.9719 18.8394L31.9538 18.8394L48.9835 18.8394L49.1479 17.2515L49.4698 13.6699L49.6387 11.7744L31.9538 11.7744L14.2511 11.7744L14.4202 13.6699L16.1566 33.1382L31.966 33.1382L40.6409 33.1382L39.8209 42.3003L31.9647 44.4209L24.067 42.3052L23.5641 36.6704L19.7408 36.6704L16.4722 36.6704L17.462 47.7632L31.9335 51.7808L46.4246 47.7632Z" fill="#7B4AE2" fill-opacity="0.500000" fill-rule="evenodd"/>
	</g>
</svg>
