<svg width="64.000000" height="64.000000" viewBox="0 0 64 64" fill="none" xmlns="http://www.w3.org/2000/svg" xmlns:xlink="http://www.w3.org/1999/xlink">
	<desc>
			Created with Pixso.
	</desc>
	<defs>
		<clipPath id="clip21_3166">
			<rect id="Insomnia" width="64.000000" height="64.000000" fill="white" fill-opacity="0"/>
		</clipPath>
	</defs>
	<g clip-path="url(#clip21_3166)">
		<path id="Vector" d="M32 62.3726C48.7747 62.3726 62.373 48.7744 62.373 32C62.373 15.2256 48.7747 1.62695 32 1.62695C15.2256 1.62695 1.6272 15.2256 1.6272 32C1.6272 48.7744 15.2256 62.3726 32 62.3726Z" fill="#FFFFFF" fill-opacity="0" fill-rule="nonzero"/>
		<path id="Vector" d="M32 0C14.3269 0 0 14.3267 0 32C0 49.6733 14.3269 64 32 64C49.6732 64 64 49.6733 64 32C64 14.3267 49.6732 0 32 0ZM32 3.25439C47.8759 3.25439 60.7458 16.124 60.7458 32C60.7458 47.876 47.8759 60.7456 32 60.7456C16.1241 60.7456 3.25421 47.876 3.25421 32C3.25421 16.124 16.1241 3.25439 32 3.25439Z" fill="#7B4AE2" fill-opacity="0.500000" fill-rule="nonzero"/>
		<path id="Vector" d="M32.3615 9.22021C44.9424 9.22021 55.1412 19.4189 55.1412 32C55.1412 44.5806 44.9424 54.7793 32.3615 54.7793C19.7806 54.7793 9.58179 44.5806 9.58179 32C9.58179 28.9253 10.1909 25.9927 11.2952 23.3169C12.9075 25.5122 15.5076 26.9375 18.4406 26.9375C23.3332 26.9375 27.2992 22.9717 27.2992 18.0791C27.2992 15.146 25.874 12.5459 23.6782 10.9336C26.3544 9.82959 29.2869 9.22021 32.3615 9.22021Z" fill="#7B4AE2" fill-opacity="0.500000" fill-rule="nonzero"/>
	</g>
</svg>
