<svg width="64.000000" height="64.000000" viewBox="0 0 64 64" fill="none" xmlns="http://www.w3.org/2000/svg" xmlns:xlink="http://www.w3.org/1999/xlink">
	<desc>
			Created with Pixso.
	</desc>
	<defs/>
	<path id="Vector" d="M29.9042 0.0170898C29.7666 0.0297852 29.3286 0.0737305 28.9345 0.10498C19.8444 0.924316 11.3298 5.82812 5.93704 13.3657C2.93411 17.5566 1.01349 22.3105 0.287781 27.3462C0.0312805 29.104 0 29.623 0 32.0063C0 34.3896 0.0312805 34.9087 0.287781 36.6665C2.02698 48.6826 10.5791 58.7783 22.1779 62.519C24.2549 63.1885 26.4446 63.645 28.9345 63.9204C29.9042 64.0264 34.0958 64.0264 35.0655 63.9204C39.3634 63.4448 43.0045 62.3813 46.5955 60.5488C47.1461 60.2671 47.2524 60.1924 47.1773 60.1294C47.1273 60.0923 44.7812 56.9458 41.966 53.1426L36.8485 46.2305L30.436 36.7412C26.9075 31.5244 24.0047 27.2588 23.9797 27.2588C23.9547 27.2524 23.9296 31.4683 23.9171 36.6162C23.8983 45.6299 23.8921 45.9927 23.7795 46.2056C23.6168 46.5122 23.4917 46.6372 23.2289 46.7749C23.0287 46.875 22.8536 46.8936 21.9089 46.8936L20.8266 46.8936L20.5388 46.7124C20.3511 46.5933 20.2135 46.437 20.1197 46.2554L19.9883 45.9741L20.0008 33.4326L20.0196 20.8848L20.2135 20.6406C20.3136 20.5093 20.5263 20.3403 20.6765 20.2588C20.933 20.1338 21.0331 20.1216 22.1154 20.1216C23.3916 20.1216 23.6043 20.1714 23.9359 20.5342C24.0297 20.6343 27.5019 25.8638 31.6559 32.1626C35.81 38.4614 41.4905 47.0625 44.2807 51.2847L49.3482 58.96L49.6047 58.791C51.8757 57.3149 54.278 55.2129 56.1799 53.0239C60.2276 48.376 62.8364 42.709 63.7122 36.6665C63.9687 34.9087 64 34.3896 64 32.0063C64 29.623 63.9687 29.104 63.7122 27.3462C61.973 15.3301 53.4209 5.23389 41.8221 1.49365C39.7763 0.830566 37.5992 0.373535 35.1593 0.0986328C34.5587 0.0361328 30.4235 -0.0327148 29.9042 0.0170898ZM43.0045 19.3706C43.3048 19.521 43.5488 19.8086 43.6364 20.1089C43.6864 20.2715 43.6989 23.7495 43.6864 31.5874L43.6676 42.834L41.6844 39.7939L39.695 36.7539L39.695 28.5786C39.695 23.293 39.72 20.3218 39.7576 20.1777C39.8577 19.8276 40.0766 19.5522 40.3769 19.3896C40.6334 19.2583 40.7273 19.2456 41.7095 19.2456C42.6354 19.2456 42.798 19.2583 43.0045 19.3706Z" fill="#7B4AE2" fill-opacity="0.500000" fill-rule="nonzero"/>
</svg>
