<svg width="64.000000" height="64.000000" viewBox="0 0 64 64" fill="none" xmlns="http://www.w3.org/2000/svg" xmlns:xlink="http://www.w3.org/1999/xlink">
	<desc>
			Created with Pixso.
	</desc>
	<defs>
		<clipPath id="clip21_3146">
			<rect id="React" width="64.000000" height="64.000000" fill="white" fill-opacity="0"/>
		</clipPath>
	</defs>
	<g clip-path="url(#clip21_3146)">
		<path id="Vector" d="M52.6208 21.9561C51.9569 21.7275 51.269 21.5112 50.5606 21.3066C50.677 20.8315 50.7839 20.3623 50.8789 19.9014C52.4385 12.3311 51.4188 6.23242 47.9368 4.22461C44.5981 2.29932 39.1378 4.30664 33.6232 9.10596C33.0929 9.56738 32.5612 10.0562 32.0296 10.5679C31.6754 10.2295 31.3218 9.90186 30.9691 9.58887C25.1897 4.45703 19.3967 2.29443 15.9182 4.30859C12.5826 6.23926 11.5948 11.9727 12.9986 19.147C13.1342 19.8398 13.2926 20.5479 13.4718 21.2671C12.652 21.5 11.8605 21.748 11.1031 22.0117C4.32733 24.3745 0 28.0767 0 31.917C0 35.8833 4.6454 39.8618 11.7029 42.2739C12.2599 42.4644 12.8378 42.644 13.4333 42.8149C13.24 43.5933 13.0719 44.356 12.9307 45.0996C11.5922 52.1494 12.6375 57.7476 15.9642 59.666C19.4003 61.6475 25.1671 59.6108 30.7825 54.7021C31.2264 54.3145 31.6718 53.9028 32.118 53.4717C32.6964 54.0283 33.2738 54.5557 33.8482 55.0498C39.2874 59.7305 44.6595 61.6206 47.9831 59.6963C51.4158 57.7095 52.5314 51.6958 51.0831 44.3794C50.9724 43.8208 50.8437 43.25 50.6991 42.6689C51.1041 42.5493 51.5017 42.4258 51.8894 42.2969C59.2263 39.8662 64 35.9365 64 31.917C64 28.063 59.5331 24.3354 52.6208 21.9561ZM51.0295 39.7017C50.6796 39.8179 50.3205 39.9297 49.9546 40.0381C49.1446 37.4741 48.0514 34.7476 46.7137 31.9302C47.9903 29.1802 49.0412 26.4883 49.8285 23.9409C50.4832 24.1304 51.1186 24.3301 51.7309 24.541C57.6533 26.5801 61.2659 29.5942 61.2659 31.917C61.2659 34.3911 57.3644 37.603 51.0295 39.7017ZM48.4009 44.9106C49.0414 48.1455 49.1329 51.0708 48.7086 53.3574C48.3275 55.4121 47.5609 56.7817 46.6131 57.3306C44.5962 58.498 40.2829 56.9805 35.6313 52.9775C35.098 52.5186 34.5609 52.0288 34.0221 51.5103C35.8254 49.5376 37.6277 47.2451 39.3867 44.6987C42.4807 44.4238 45.4037 43.9751 48.0545 43.3623C48.1851 43.8892 48.301 44.4053 48.4009 44.9106ZM21.819 57.1289C19.8485 57.8247 18.279 57.8447 17.3303 57.2974C15.3115 56.1333 14.4723 51.6387 15.6171 45.6094C15.7482 44.9189 15.9043 44.21 16.0841 43.4849C18.7059 44.0645 21.6075 44.4819 24.7088 44.7329C26.4797 47.2251 28.3341 49.5151 30.2028 51.5205C29.7945 51.915 29.3878 52.29 28.9834 52.6436C26.5003 54.814 24.012 56.354 21.819 57.1289ZM12.5872 39.6865C9.46645 38.6201 6.88927 37.2339 5.12271 35.7212C3.53537 34.3618 2.73395 33.0122 2.73395 31.917C2.73395 29.5864 6.20836 26.6143 12.0031 24.5938C12.7062 24.3486 13.4422 24.1177 14.2061 23.9004C15.0069 26.5054 16.0575 29.2295 17.3253 31.9834C16.0411 34.7788 14.9756 37.5459 14.1669 40.1812C13.6223 40.0249 13.0948 39.8604 12.5872 39.6865ZM15.6818 18.6221C14.479 12.4751 15.2778 7.83838 17.2879 6.6748C19.429 5.43506 24.1636 7.20215 29.1537 11.6333C29.4727 11.9165 29.7929 12.2129 30.1141 12.5195C28.2546 14.5161 26.4172 16.7896 24.662 19.2666C21.652 19.5454 18.7708 19.9937 16.1217 20.5938C15.9552 19.9238 15.8076 19.2656 15.6818 18.6221ZM43.2885 25.439C42.6552 24.3447 42.0051 23.2769 41.3423 22.2383C43.3843 22.4961 45.3407 22.8389 47.178 23.2583C46.6264 25.0259 45.9389 26.8745 45.1296 28.769C44.5491 27.667 43.9351 26.5557 43.2885 25.439ZM32.0305 14.4736C33.2916 15.8398 34.5545 17.3652 35.7967 19.02C34.545 18.9609 33.2777 18.9302 32 18.9302C30.7344 18.9302 29.4765 18.9604 28.2325 19.0186C29.4759 17.3789 30.7497 15.8555 32.0305 14.4736ZM20.7005 25.4575C20.0679 26.5547 19.4653 27.6597 18.8938 28.7671C18.0977 26.8789 17.4165 25.022 16.8601 23.2295C18.6862 22.8208 20.6334 22.4863 22.6624 22.2334C21.9903 23.2817 21.3348 24.3574 20.7005 25.4575L20.7005 25.4575ZM22.7208 41.7959C20.6245 41.562 18.648 41.2451 16.8224 40.8477C17.3877 39.0225 18.0839 37.1265 18.8969 35.1973C19.4698 36.3037 20.0748 37.4097 20.7113 38.5088L20.7114 38.5088C21.3597 39.6289 22.0314 40.7261 22.7208 41.7959ZM32.1062 49.5532C30.8103 48.1553 29.5178 46.6084 28.2555 44.9448C29.4809 44.9932 30.7303 45.0176 32 45.0176C33.3045 45.0176 34.5941 44.9883 35.8633 44.9316C34.6171 46.6255 33.3587 48.1743 32.1062 49.5532ZM45.1557 35.0991C46.0111 37.0488 46.7323 38.9355 47.3048 40.729C45.4492 41.1523 43.4457 41.4932 41.3348 41.7466C41.9991 40.6938 42.655 39.6074 43.2994 38.4902C43.9514 37.3594 44.5704 36.2275 45.1557 35.0991ZM40.9312 37.124C39.9307 38.8589 38.9036 40.5146 37.8609 42.0781C35.9618 42.2139 33.9997 42.2837 32 42.2837C30.0083 42.2837 28.071 42.2217 26.2055 42.1006C25.1208 40.5171 24.0714 38.8564 23.0773 37.1392L23.0775 37.1392C22.0861 35.4268 21.1736 33.6997 20.3468 31.9824C21.1734 30.2612 22.0835 28.5327 23.0692 26.8232L23.069 26.8237C24.0573 25.1099 25.0975 23.457 26.1722 21.8833C28.0756 21.7393 30.0274 21.6641 31.9999 21.6641L32 21.6641C33.9814 21.6641 35.9357 21.7397 37.8385 21.8853C38.8968 23.4473 39.9299 25.0947 40.9221 26.8086C41.9257 28.542 42.8475 30.2593 43.6812 31.9438C42.85 33.6572 41.9302 35.3916 40.9312 37.124ZM46.5712 6.59326C48.7143 7.8291 49.5478 12.8135 48.2012 19.3496C48.1153 19.7666 48.0186 20.1914 47.9136 20.6221C45.2584 20.0093 42.3751 19.5537 39.3563 19.2705C37.5977 16.7661 35.7754 14.4893 33.9462 12.5181C34.438 12.0454 34.9291 11.5942 35.4182 11.1685C40.1431 7.05664 44.5591 5.43311 46.5712 6.59326ZM32 26.2021C35.1562 26.2021 37.715 28.7607 37.715 31.917C37.715 35.0732 35.1562 37.6318 32 37.6318C28.8438 37.6318 26.285 35.0732 26.285 31.917C26.285 28.7607 28.8438 26.2021 32 26.2021Z" fill="#7B4AE2" fill-opacity="0.500000" fill-rule="nonzero"/>
	</g>
</svg>
