<svg width="64.001221" height="64.000000" viewBox="0 0 64.0012 64" fill="none" xmlns="http://www.w3.org/2000/svg" xmlns:xlink="http://www.w3.org/1999/xlink">
	<desc>
			Created with Pixso.
	</desc>
	<defs/>
	<path id="Shape" d="M62.7941 29.1489L34.8502 1.20703C33.2421 -0.402344 30.6319 -0.402344 29.0217 1.20703L23.2191 7.00977L30.5799 14.3706C32.2905 13.7925 34.2519 14.1802 35.6156 15.5439C36.9857 16.916 37.3705 18.894 36.7785 20.6104L43.8724 27.7046C45.5887 27.1133 47.569 27.4961 48.9398 28.8687C50.8555 30.7837 50.8555 33.8877 48.9398 35.8042C47.0234 37.7202 43.9195 37.7202 42.0024 35.8042C40.5615 34.3618 40.2054 32.2451 40.935 30.4697L34.3193 23.854L34.3186 41.2637C34.7856 41.4956 35.2266 41.8037 35.6156 42.1914C37.5313 44.1064 37.5313 47.2104 35.6156 49.1279C33.6992 51.0439 30.5939 51.0439 28.6804 49.1279C26.7647 47.2104 26.7647 44.1064 28.6804 42.1914C29.1537 41.7188 29.7014 41.3613 30.2857 41.1211L30.2857 23.5493C29.7014 23.3105 29.1544 22.9551 28.6804 22.479C27.2289 21.0298 26.8799 18.8999 27.6235 17.1177L20.368 9.86084L1.20764 29.0195C-0.402527 30.6309 -0.402527 33.2407 1.20764 34.8506L29.1516 62.793C30.7604 64.4023 33.3699 64.4023 34.9808 62.793L62.7941 34.9805C64.4036 33.3701 64.4036 30.7583 62.7941 29.1489Z" fill="#7B4AE2" fill-opacity="0.500000" fill-rule="evenodd"/>
</svg>
