<svg width="64.000000" height="64.000000" viewBox="0 0 64 64" fill="none" xmlns="http://www.w3.org/2000/svg" xmlns:xlink="http://www.w3.org/1999/xlink">
	<desc>
			Created with Pixso.
	</desc>
	<defs>
		<clipPath id="clip21_3160">
			<rect id="TypeScript" width="64.000000" height="64.000000" fill="white" fill-opacity="0"/>
		</clipPath>
	</defs>
	<g clip-path="url(#clip21_3160)">
		<path id="Subtract" d="M59 0L5 0C2.23859 0 0 2.23877 0 5L0 59C0 61.7612 2.23859 64 5 64L59 64C61.7614 64 64 61.7612 64 59L64 5C64 2.23877 61.7614 0 59 0ZM37.6295 57.0239L37.6295 50.1187C38.882 51.1689 40.2425 51.9565 41.7112 52.4814C43.1797 53.0068 44.6625 53.269 46.1598 53.269C47.038 53.269 47.8047 53.1899 48.4597 53.0317C49.1147 52.8735 49.662 52.6543 50.101 52.3735C50.54 52.0933 50.8677 51.7622 51.0835 51.3813C51.2995 51 51.4075 50.5864 51.4075 50.1406C51.4075 49.5361 51.2347 48.9966 50.8893 48.522C50.5438 48.0474 50.0723 47.6084 49.4748 47.2056C48.8773 46.8032 48.1682 46.4146 47.3475 46.0405C46.527 45.6665 45.6415 45.2856 44.6913 44.897C42.2725 43.8901 40.4695 42.6602 39.2817 41.207C38.0938 39.7544 37.5 37.999 37.5 35.9424C37.5 34.3311 37.824 32.9463 38.4717 31.7886C39.1198 30.6304 40.0015 29.6777 41.1172 28.9292C42.233 28.1812 43.5253 27.6309 44.9937 27.2788C46.4622 26.9263 48.017 26.75 49.6583 26.75C51.2708 26.75 52.6997 26.8472 53.945 27.041C55.1902 27.2354 56.3385 27.5342 57.3895 27.9365L57.3895 34.3887C56.8712 34.0288 56.306 33.7124 55.6942 33.4395C55.0822 33.1655 54.4525 32.9395 53.8047 32.7593C53.1567 32.5796 52.5125 32.4463 51.8718 32.3604C51.2313 32.2739 50.623 32.231 50.047 32.231C49.2552 32.231 48.5352 32.3062 47.8875 32.457C47.2395 32.6084 46.6925 32.8203 46.2462 33.0942C45.8 33.3672 45.4543 33.6943 45.2095 34.0757C44.9648 34.457 44.8425 34.8848 44.8425 35.3594C44.8425 35.8774 44.9792 36.3413 45.2527 36.7515C45.5262 37.1611 45.915 37.5498 46.419 37.9165C46.9228 38.2837 47.5348 38.6431 48.2545 38.9956C48.9745 39.3481 49.7878 39.7109 50.6948 40.0854C51.933 40.603 53.0453 41.1533 54.0315 41.7358C55.0175 42.3184 55.8635 42.9766 56.5688 43.7104C57.2743 44.4438 57.8142 45.2817 58.1885 46.2241C58.5627 47.166 58.75 48.2632 58.75 49.5146C58.75 51.2412 58.4225 52.6904 57.7675 53.8623C57.1122 55.0352 56.2233 55.9844 55.1003 56.7109C53.9775 57.437 52.6707 57.959 51.1808 58.2754C49.6907 58.5918 48.1177 58.75 46.4622 58.75C44.7632 58.75 43.1472 58.6064 41.614 58.3184C40.0807 58.0308 38.7525 57.5991 37.6295 57.0239ZM35 32.9355L26.1205 32.9355L26.1205 58.25L19.0862 58.25L19.0862 32.9355L10.25 32.9355L10.25 27.25L35 27.25L35 32.9355Z" fill="#7B4AE2" fill-opacity="0.500000" fill-rule="evenodd"/>
	</g>
</svg>
